<?xml version="1.0" encoding="utf-8"?>
<!-- Generator: Adobe Illustrator 24.3.0, SVG Export Plug-In . SVG Version: 6.00 Build 0)  -->
<svg version="1.1" xmlns="http://www.w3.org/2000/svg" xmlns:xlink="http://www.w3.org/1999/xlink" x="0px" y="0px"
	 viewBox="0 0 137 72" style="enable-background:new 0 0 137 72;" xml:space="preserve">
<style type="text/css">
	.st0{fill:none;}
	.st1{fill:#FFFFFF;}
	.st2{font-family:'MyriadPro-Regular';}
	.st3{font-size:17px;}
	.st4{letter-spacing:1;}
	.st5{fill:#FFFFFF;filter:url(#Adobe_OpacityMaskFilter);}
	.st6{mask:url(#mask0_1_165_1_);}
	.st7{fill:#FDFDFD;}
</style>
<g id="Слой_2">
	<rect x="3.5" y="52" class="st0" width="157.9" height="14.4"/>
	<text transform="matrix(1 0 0 1 3.5283 64.0513)" class="st1 st2 st3 st4">RIMHIMALAYAS </text>
</g>
<g id="Слой_1">
	<defs>
		<filter id="Adobe_OpacityMaskFilter" filterUnits="userSpaceOnUse" x="0" y="10" width="137" height="28.8">
			<feColorMatrix  type="matrix" values="1 0 0 0 0  0 1 0 0 0  0 0 1 0 0  0 0 0 1 0"/>
		</filter>
	</defs>
	<mask maskUnits="userSpaceOnUse" x="0" y="10" width="137" height="28.8" id="mask0_1_165_1_">
		<path class="st5" d="M137,0H0v48h137V0z"/>
	</mask>
	<g class="st6">
		<path class="st7" d="M0.2,27.9c0.2-0.1,24.7-5.9,43-14c2-0.9,3.7-1.4,5.1-1.7c-1.6,1.6-10.8,5.5-3.4,6.2c6.7,0.6-4.4,8.6-9.4,11.5
			c-13.4,4.2-22.1,5.9-22.2,5.9l0.2,1c0,0,0.8-0.2,2.2-0.5c7.4-1.6,32.1-7.7,60.5-21.7c4-2,7.2-3,10-3.4
			c-0.8,4.1-10.1,13.2,4.7,15.5c13.5,2.1-13.6,7.4-23.7,10.1c-1.5,0.4-2.6,0.7-3.1,1c-4.5,2,47.4,0.2,70.6,0.1c0.8,0,1.5,0,2.3,0v-1
			c-20.7,0-28.1-9.5-34-17.1c-6.1-7.9-11-14.2-27.3-6.1c-3.8,1.9-7.6,3.6-11.5,5.3c-3.4-1.2-5.5-3-7.3-4.5c-3.4-2.9-5.8-4.9-14-1.3
			C24.6,21.4,0.2,27.2,0,27.3L0.2,27.9z"/>
	</g>
</g>
</svg>
